<?xml version="1.0" encoding="UTF-8"?>
<svg xmlns="http://www.w3.org/2000/svg" version="1.1" width="500" height="500" viewBox="0 0 500 500"><rect x="0" y="0" width="500" height="500" fill="#ffffff"/><g transform="scale(17.241)"><g transform="translate(0,0)"><g><g transform="translate(3.5,3.5)"><path fill-rule="evenodd" d="M-3.5 0C-3.5 -3.5 -3.5 -3.5 0 -3.5M-3.5 0C-3.5 3.5 -3.5 3.5 0 3.5M0 3.5C3.5 3.5 3.5 3.5 3.5 0M3.5 0C3.5 -3.5 3.5 -3.5 0 -3.5M3.5 0A0 0 0 0 1 0 3.5A0 0 0 0 1 -3.5 0A0 0 0 0 1 0 -3.5A0 0 0 0 1 3.5 0ZM-2.5 0C-2.5 -2.5 -2.5 -2.5 0 -2.5M-2.5 0C-2.5 2.5 -2.5 2.5 0 2.5M0 2.5C2.5 2.5 2.5 2.5 2.5 0M2.5 0C2.5 -2.5 2.5 -2.5 0 -2.5M2.5 0A0 0 0 0 1 0 2.5A0 0 0 0 1 -2.5 0A0 0 0 0 1 0 -2.5A0 0 0 0 1 2.5 0Z" fill="#000000"/><path fill-rule="evenodd" d="M-1.5 0C-1.5 -1.5 -1.5 -1.5 0 -1.5M-1.5 0C-1.5 1.5 -1.5 1.5 0 1.5M0 1.5C1.5 1.5 1.5 1.5 1.5 0M1.5 0C1.5 -1.5 1.5 -1.5 0 -1.5M1.5 0A0 0 0 0 1 0 1.5A0 0 0 0 1 -1.5 0A0 0 0 0 1 0 -1.5A0 0 0 0 1 1.5 0Z" fill="#000000"/></g></g><g><g transform="translate(25.5,3.5)"><g transform="rotate(90)"><path fill-rule="evenodd" d="M-3.5 0C-3.5 -3.5 -3.5 -3.5 0 -3.5M-3.5 0C-3.5 3.5 -3.5 3.5 0 3.5M0 3.5C3.5 3.5 3.5 3.5 3.5 0M3.5 0C3.5 -3.5 3.5 -3.5 0 -3.5M3.5 0A0 0 0 0 1 0 3.5A0 0 0 0 1 -3.5 0A0 0 0 0 1 0 -3.5A0 0 0 0 1 3.5 0ZM-2.5 0C-2.5 -2.5 -2.5 -2.5 0 -2.5M-2.5 0C-2.5 2.5 -2.5 2.5 0 2.5M0 2.5C2.5 2.5 2.5 2.5 2.5 0M2.5 0C2.5 -2.5 2.5 -2.5 0 -2.5M2.5 0A0 0 0 0 1 0 2.5A0 0 0 0 1 -2.5 0A0 0 0 0 1 0 -2.5A0 0 0 0 1 2.5 0Z" fill="#000000"/><path fill-rule="evenodd" d="M-1.5 0C-1.5 -1.5 -1.5 -1.5 0 -1.5M-1.5 0C-1.5 1.5 -1.5 1.5 0 1.5M0 1.5C1.5 1.5 1.5 1.5 1.5 0M1.5 0C1.5 -1.5 1.5 -1.5 0 -1.5M1.5 0A0 0 0 0 1 0 1.5A0 0 0 0 1 -1.5 0A0 0 0 0 1 0 -1.5A0 0 0 0 1 1.5 0Z" fill="#000000"/></g></g></g><g><g transform="translate(3.5,25.5)"><g transform="rotate(-90)"><path fill-rule="evenodd" d="M-3.5 0C-3.5 -3.5 -3.5 -3.5 0 -3.5M-3.5 0C-3.5 3.5 -3.5 3.5 0 3.5M0 3.5C3.5 3.5 3.5 3.5 3.5 0M3.5 0C3.5 -3.5 3.5 -3.5 0 -3.5M3.5 0A0 0 0 0 1 0 3.5A0 0 0 0 1 -3.5 0A0 0 0 0 1 0 -3.5A0 0 0 0 1 3.5 0ZM-2.5 0C-2.5 -2.5 -2.5 -2.5 0 -2.5M-2.5 0C-2.5 2.5 -2.5 2.5 0 2.5M0 2.5C2.5 2.5 2.5 2.5 2.5 0M2.5 0C2.5 -2.5 2.5 -2.5 0 -2.5M2.5 0A0 0 0 0 1 0 2.5A0 0 0 0 1 -2.5 0A0 0 0 0 1 0 -2.5A0 0 0 0 1 2.5 0Z" fill="#000000"/><path fill-rule="evenodd" d="M-1.5 0C-1.5 -1.5 -1.5 -1.5 0 -1.5M-1.5 0C-1.5 1.5 -1.5 1.5 0 1.5M0 1.5C1.5 1.5 1.5 1.5 1.5 0M1.5 0C1.5 -1.5 1.5 -1.5 0 -1.5M1.5 0A0 0 0 0 1 0 1.5A0 0 0 0 1 -1.5 0A0 0 0 0 1 0 -1.5A0 0 0 0 1 1.5 0Z" fill="#000000"/></g></g></g><defs><linearGradient gradientUnits="userSpaceOnUse" x1="0" y1="0" x2="0" y2="29" id="g1"><stop offset="0%" stop-color="#007cfa"/><stop offset="100%" stop-color="#454545"/></linearGradient></defs><path fill-rule="evenodd" d="M9 0L9 1L8 1L8 2L9 2L9 3L8 3L8 4L10 4L10 7L11 7L11 4L12 4L12 5L13 5L13 6L12 6L12 9L13 9L13 8L14 8L14 9L15 9L15 10L17 10L17 11L16 11L16 12L17 12L17 11L19 11L19 12L20 12L20 13L18 13L18 14L17 14L17 15L19 15L19 16L18 16L18 17L19 17L19 16L20 16L20 14L21 14L21 12L22 12L22 14L25 14L25 15L22 15L22 16L21 16L21 18L20 18L20 19L19 19L19 18L17 18L17 17L16 17L16 13L12 13L12 11L13 11L13 10L11 10L11 11L10 11L10 9L11 9L11 8L6 8L6 9L5 9L5 8L0 8L0 11L1 11L1 12L0 12L0 16L2 16L2 13L1 13L1 12L4 12L4 13L3 13L3 16L6 16L6 17L7 17L7 18L6 18L6 19L8 19L8 23L9 23L9 24L8 24L8 29L10 29L10 27L11 27L11 29L12 29L12 27L13 27L13 26L11 26L11 25L10 25L10 23L11 23L11 22L10 22L10 21L12 21L12 22L13 22L13 23L12 23L12 25L13 25L13 24L14 24L14 25L15 25L15 26L16 26L16 27L19 27L19 28L20 28L20 26L21 26L21 27L24 27L24 25L25 25L25 23L26 23L26 25L29 25L29 23L27 23L27 22L28 22L28 20L25 20L25 19L27 19L27 18L26 18L26 17L23 17L23 16L25 16L25 15L27 15L27 16L29 16L29 14L28 14L28 13L27 13L27 14L26 14L26 13L25 13L25 12L26 12L26 11L27 11L27 10L28 10L28 8L27 8L27 10L26 10L26 8L25 8L25 9L24 9L24 8L23 8L23 9L22 9L22 8L20 8L20 7L21 7L21 6L20 6L20 5L21 5L21 2L20 2L20 1L21 1L21 0L20 0L20 1L17 1L17 0L15 0L15 1L17 1L17 2L16 2L16 4L12 4L12 2L13 2L13 1L11 1L11 2L10 2L10 0ZM14 2L14 3L15 3L15 2ZM10 3L10 4L11 4L11 3ZM18 3L18 4L16 4L16 5L19 5L19 4L20 4L20 3ZM8 5L8 7L9 7L9 5ZM13 6L13 7L14 7L14 8L15 8L15 7L16 7L16 9L17 9L17 10L19 10L19 11L20 11L20 12L21 12L21 11L23 11L23 10L21 10L21 9L20 9L20 8L19 8L19 7L20 7L20 6L19 6L19 7L18 7L18 6L17 6L17 7L16 7L16 6L15 6L15 7L14 7L14 6ZM18 8L18 9L19 9L19 10L20 10L20 9L19 9L19 8ZM4 9L4 12L5 12L5 13L4 13L4 15L5 15L5 13L6 13L6 14L7 14L7 15L6 15L6 16L8 16L8 14L7 14L7 13L6 13L6 12L7 12L7 11L6 11L6 12L5 12L5 9ZM6 9L6 10L7 10L7 9ZM8 9L8 11L9 11L9 9ZM2 10L2 11L3 11L3 10ZM24 10L24 11L25 11L25 10ZM14 11L14 12L15 12L15 11ZM28 11L28 12L29 12L29 11ZM10 12L10 13L9 13L9 15L10 15L10 13L11 13L11 18L13 18L13 19L12 19L12 21L15 21L15 20L16 20L16 21L17 21L17 22L19 22L19 23L14 23L14 24L19 24L19 25L20 25L20 20L19 20L19 19L15 19L15 18L16 18L16 17L14 17L14 16L15 16L15 15L14 15L14 16L13 16L13 17L12 17L12 15L13 15L13 14L12 14L12 13L11 13L11 12ZM9 16L9 17L8 17L8 18L9 18L9 17L10 17L10 16ZM0 17L0 21L1 21L1 17ZM3 17L3 19L2 19L2 21L3 21L3 20L4 20L4 19L5 19L5 18L4 18L4 17ZM22 17L22 19L23 19L23 17ZM28 17L28 19L29 19L29 17ZM24 18L24 19L25 19L25 18ZM9 19L9 21L10 21L10 20L11 20L11 19ZM14 19L14 20L15 20L15 19ZM6 20L6 21L7 21L7 20ZM17 20L17 21L19 21L19 20ZM21 21L21 24L24 24L24 21ZM25 21L25 22L27 22L27 21ZM22 22L22 23L23 23L23 22ZM9 25L9 26L10 26L10 25ZM16 25L16 26L18 26L18 25ZM21 25L21 26L22 26L22 25ZM26 26L26 27L25 27L25 28L24 28L24 29L27 29L27 27L28 27L28 28L29 28L29 27L28 27L28 26ZM14 27L14 28L15 28L15 29L17 29L17 28L15 28L15 27ZM21 28L21 29L23 29L23 28Z" fill="url(#g1)"/></g></g></svg>
